<?xml version="1.0" encoding="UTF-8"?>
<svg xmlns="http://www.w3.org/2000/svg" viewBox="0 0 1200 630" width="1200" height="630">
  <defs>
    <linearGradient id="bg" x1="0" y1="0" x2="1" y2="1">
      <stop offset="0%" stop-color="#f9f6f1"/>
      <stop offset="58%" stop-color="#f2eee8"/>
      <stop offset="100%" stop-color="#ece8e1"/>
    </linearGradient>
    <linearGradient id="redLine" x1="0" y1="0" x2="1" y2="0">
      <stop offset="0%" stop-color="#f09b97"/>
      <stop offset="48%" stop-color="#d83935"/>
      <stop offset="100%" stop-color="#911f1c"/>
    </linearGradient>
    <radialGradient id="halo" cx="50%" cy="40%" r="60%">
      <stop offset="0%" stop-color="rgba(216,57,53,0.18)"/>
      <stop offset="62%" stop-color="rgba(216,57,53,0.06)"/>
      <stop offset="100%" stop-color="rgba(216,57,53,0)"/>
    </radialGradient>
    <filter id="shadow" x="-20%" y="-20%" width="140%" height="140%">
      <feDropShadow dx="0" dy="10" stdDeviation="14" flood-color="rgba(14,16,14,0.12)"/>
    </filter>
  </defs>

  <rect width="1200" height="630" fill="url(#bg)"/>
  <rect width="1200" height="630" fill="url(#halo)"/>

  <g opacity="0.18" stroke="#101214" stroke-width="1">
    <path d="M0 100H1200"/>
    <path d="M0 176H1200"/>
    <path d="M0 252H1200"/>
    <path d="M0 328H1200"/>
    <path d="M0 404H1200"/>
    <path d="M0 480H1200"/>
    <path d="M0 556H1200"/>
    <path d="M132 0V630"/>
    <path d="M300 0V630"/>
    <path d="M468 0V630"/>
    <path d="M636 0V630"/>
    <path d="M804 0V630"/>
    <path d="M972 0V630"/>
  </g>

  <g filter="url(#shadow)">
    <rect x="74" y="76" width="1052" height="478" rx="28" fill="rgba(255,255,255,0.62)" stroke="rgba(17,17,17,0.1)"/>
  </g>

  <g>
    <rect x="114" y="120" width="970" height="5" rx="2.5" fill="url(#redLine)"/>
    <rect x="114" y="508" width="970" height="5" rx="2.5" fill="url(#redLine)"/>
  </g>

  <g>
    <rect x="142" y="198" width="30" height="234" rx="15" fill="url(#redLine)"/>
    <circle cx="157" cy="210" r="4" fill="rgba(255,255,255,0.68)"/>
  </g>

  <g fill="#111111">
    <text x="206" y="244" font-family="Inter, Arial, sans-serif" font-size="24" font-weight="600" letter-spacing="3.2">RED PILL SOFTWARE</text>
    <text x="206" y="336" font-family="Instrument Serif, Georgia, serif" font-size="72" font-weight="400" letter-spacing="-1.6">Knowledge Before AI</text>
    <text x="206" y="402" font-family="Inter, Arial, sans-serif" font-size="38" font-weight="500" letter-spacing="-0.4">Enterprise Intelligence Architecture</text>
    <text x="206" y="458" font-family="Inter, Arial, sans-serif" font-size="24" font-weight="400" fill="#4f5551">Semantic Systems, Ontologies, and Knowledge Graph Engineering</text>
  </g>
</svg>
