<?xml version="1.0" encoding="UTF-8"?>
<svg xmlns="http://www.w3.org/2000/svg" xmlns:xlink="http://www.w3.org/1999/xlink"
     viewBox="0 0 1024 1024" width="1024" height="1024">
  <title>REDPILL</title>
  <style>
    @import url('https://fonts.googleapis.com/css2?family=Montserrat:wght@400;700;900&amp;display=swap');
  </style>
  <rect width="1024" height="1024" fill="#FFFFFF"/>
  <g transform="translate(202.5, 426.5)" fill="#ff0000"><path fill="currentColor" d="M215 41a51.28 51.28 0 0 0-72.5 0L41 142.5a51.26 51.26 0 0 0 72.49 72.5L215 113.5a51.31 51.31 0 0 0 0-72.5M105 206.5A39.26 39.26 0 0 1 49.48 151L96 104.49L151.52 160ZM206.52 105L160 151.51L104.48 96L151 49.5a39.26 39.26 0 0 1 55.52 55.5m-18.26-21.24a6 6 0 0 1 0 8.48l-24 24a6 6 0 0 1-8.49-8.48l24-24a6 6 0 0 1 8.49 0"/></g>
  <text x="421.5" y="459.75" font-family="'Montserrat', sans-serif" font-size="95" font-weight="900" fill="#ff0000" text-anchor="start" letter-spacing="13">REDPILL</text>
  <text x="421.5" y="576.25" font-family="'Montserrat', sans-serif" font-size="72" font-weight="400" fill="#ff0000" text-anchor="start" letter-spacing="13">SOFTWARE</text>
</svg>